<?xml version="1.0" encoding="iso-8859-1"?>
<!-- Generator: Adobe Illustrator 23.1.1, SVG Export Plug-In . SVG Version: 6.00 Build 0)  -->
<svg version="1.1" id="_x31_-outline-expand" xmlns="http://www.w3.org/2000/svg" xmlns:xlink="http://www.w3.org/1999/xlink"
	 x="0px" y="0px" viewBox="0 0 64 64" style="enable-background:new 0 0 64 64;" xml:space="preserve">
<polygon style="fill:#42A5B2;" points="27.779,24.146 20.255,3.474 25.893,1.422 39.055,20.043 "/>
<path style="fill:#62C4C3;" d="M4.799,28.254l45.178-16.443c1.142-0.416,2.411-0.29,3.449,0.342l3.826,2.33
	c2.076-0.755,4.372,0.315,5.127,2.391c0.756,2.076-0.314,4.371-2.391,5.127L28.039,33.629L6.851,33.892L4.799,28.254z"/>
<polygon style="fill:#42A5B2;" points="4.799,28.254 1.379,18.857 5.138,17.489 12.317,25.518 "/>
<polygon style="fill:#42A5B2;" points="29.148,27.905 36.671,48.578 42.311,46.526 40.423,23.801 "/>
<path style="fill:#EFBC2E;" d="M7,60c0,1.104-0.896,2-2,2c-1.104,0-2-0.896-2-2c0-1.104,0.896-2,2-2C6.104,58,7,58.896,7,60"/>
<path style="fill:#EFBC2E;" d="M30,43c0,1.104-0.896,2-2,2c-1.104,0-2-0.896-2-2c0-1.104,0.896-2,2-2C29.104,41,30,41.896,30,43"/>
<path style="fill:#3A4249;" d="M63.317,16.523c-0.869-2.348-3.465-3.754-5.928-3.129l-3.442-2.099
	c-1.3-0.787-2.871-0.941-4.309-0.424l-12.592,4.581L26.706,0.843c-0.26-0.367-0.738-0.515-1.159-0.362l-5.629,2.05
	c-0.52,0.189-0.788,0.762-0.598,1.281l5.807,15.978l-12.519,4.555l-6.726-7.522c-0.271-0.304-0.702-0.414-1.087-0.273l-3.758,1.368
	c-0.52,0.189-0.787,0.763-0.598,1.282L5.91,34.232c0.143,0.396,0.519,0.659,0.939,0.659h0.013l21.19-0.261
	c0.113-0.001,0.225-0.022,0.33-0.06l1.877-0.686l5.473,15.037c0.147,0.406,0.531,0.659,0.939,0.659c0.114,0,0.23-0.02,0.342-0.061
	l5.639-2.053c0.424-0.154,0.692-0.572,0.654-1.022l-1.394-16.796l18.42-6.708c1.966-0.716,3.288-2.608,3.288-4.71
	C63.62,17.661,63.519,17.091,63.317,16.523 M21.541,4.068l3.973-1.447l9.584,13.541l-8.092,2.944L21.541,4.068z M5.394,26.97
	L2.66,19.456l2.183-0.795l5.741,6.421L5.394,26.97z M37.269,47.297l-6.841-18.794l9.107-3.314l1.716,20.66L37.269,47.297z
	 M59.648,21.061L41.74,27.582l-0.321-3.863c-0.025-0.311-0.194-0.592-0.457-0.76c-0.262-0.168-0.589-0.202-0.88-0.097l-11.277,4.104
	c-0.249,0.091-0.452,0.277-0.564,0.517c-0.113,0.241-0.124,0.515-0.033,0.765l1.367,3.757l-1.718,0.627l-20.311,0.25l-1.465-4.033
	l44.238-16.098c0.865-0.311,1.81-0.219,2.59,0.253l0.958,0.584l-2.937,1.069l0.684,1.88l4.438-1.616l0.677,0.413
	c0.257,0.158,0.574,0.189,0.856,0.089c1.591-0.567,3.302,0.294,3.852,1.783c0.121,0.34,0.183,0.684,0.183,1.024
	C61.62,19.494,60.827,20.631,59.648,21.061"/>
<rect x="44.634" y="16.648" transform="matrix(0.9397 -0.3421 0.3421 0.9397 -3.284 16.674)" style="fill:#3A4249;" width="1.999" height="2"/>
<rect x="40.875" y="18.016" transform="matrix(0.9397 -0.3421 0.3421 0.9397 -3.9787 15.4708)" style="fill:#3A4249;" width="1.999" height="2"/>
<rect x="37.117" y="19.384" transform="matrix(0.9397 -0.3421 0.3421 0.9397 -4.6734 14.2677)" style="fill:#3A4249;" width="1.999" height="2"/>
<rect x="33.358" y="20.753" transform="matrix(0.9397 -0.3421 0.3421 0.9397 -5.3681 13.0645)" style="fill:#3A4249;" width="1.999" height="2"/>
<rect x="29.599" y="22.121" transform="matrix(0.9397 -0.3421 0.3421 0.9397 -6.0628 11.8613)" style="fill:#3A4249;" width="1.999" height="2"/>
<rect x="25.84" y="23.488" transform="matrix(0.9397 -0.3421 0.3421 0.9397 -6.7574 10.658)" style="fill:#3A4249;" width="1.999" height="2"/>
<rect x="22.082" y="24.857" transform="matrix(0.9397 -0.3421 0.3421 0.9397 -7.4522 9.4548)" style="fill:#3A4249;" width="1.999" height="2"/>
<rect x="18.323" y="26.225" transform="matrix(0.9395 -0.3425 0.3425 0.9395 -8.1558 8.2647)" style="fill:#3A4249;" width="1.999" height="2"/>
<rect x="14.564" y="27.593" transform="matrix(0.9395 -0.3425 0.3425 0.9395 -8.8518 7.0601)" style="fill:#3A4249;" width="1.999" height="2"/>
<path style="fill:#3A4249;" d="M19,44h6.185c0.414,1.162,1.513,2,2.815,2c1.654,0,3-1.346,3-3c0-1.654-1.346-3-3-3
	c-1.302,0-2.401,0.838-2.815,2H19c-3.309,0-6,2.691-6,6c0,3.309,2.691,6,6,6h17v-2H19c-2.206,0-4-1.794-4-4
	C15,45.794,16.794,44,19,44 M28,42c0.552,0,1,0.449,1,1c0,0.551-0.448,1-1,1c-0.552,0-1-0.449-1-1C27,42.449,27.448,42,28,42"/>
<rect x="38" y="52" style="fill:#3A4249;" width="2" height="2"/>
<path style="fill:#3A4249;" d="M50.5,52H42v2h8.5c1.379,0,2.5,1.122,2.5,2.5c0,1.378-1.121,2.5-2.5,2.5H19v2h31.5
	c2.481,0,4.5-2.019,4.5-4.5C55,54.019,52.981,52,50.5,52"/>
<path style="fill:#3A4249;" d="M5,57c-1.654,0-3,1.346-3,3c0,1.654,1.346,3,3,3c1.302,0,2.401-0.838,2.815-2H17v-2H7.815
	C7.401,57.838,6.302,57,5,57 M5,61c-0.552,0-1-0.449-1-1c0-0.551,0.448-1,1-1c0.552,0,1,0.449,1,1C6,60.551,5.552,61,5,61"/>
</svg>
