<svg width="512" height="512" viewBox="0 0 512 512" fill="none" xmlns="http://www.w3.org/2000/svg">
<path d="M41.7526 363.436L209.997 461.007C213.563 463.082 219.308 463.082 222.874 461.04L478.516 313.731C482.082 311.688 482.082 308.36 478.516 306.285L310.271 208.714C306.739 206.671 300.994 206.671 297.428 208.714L41.7856 355.99C38.2198 358.066 38.1868 361.393 41.7526 363.436Z" fill="#AAF3FD"/>
<path d="M240.567 373.352C238.556 374.51 238.568 376.397 240.566 377.555L282.039 401.607C284.036 402.765 287.301 402.778 289.311 401.62L371.038 354.533C373.048 353.374 373.037 351.487 371.039 350.329L329.566 326.277C327.569 325.119 324.304 325.106 322.294 326.264L240.567 373.352Z" fill="#2E4277"/>
<path d="M39.1113 359.746L39.1443 369.567C39.1443 370.885 40.0356 372.236 41.7855 373.257L210.03 470.828C213.596 472.871 219.341 472.871 222.907 470.828L478.549 323.552C480.332 322.531 481.224 321.18 481.224 319.796L481.191 310.008C481.191 311.359 480.299 312.71 478.516 313.731L222.874 461.04C219.308 463.082 213.563 463.082 209.997 461.007L41.7525 363.436C39.9697 362.414 39.1113 361.097 39.1113 359.746Z" fill="#7CFE79"/>
<path d="M296.93 14.4374C300.493 12.3849 303.39 14.0325 303.402 18.1176L303.857 197.601C303.869 201.662 300.99 206.662 297.428 208.714L45.4695 353.868C41.9071 355.92 39.0098 354.248 38.9982 350.187L38.5425 170.704C38.5309 166.619 41.4093 161.643 44.9718 159.591L296.93 14.4374Z" fill="#1B4F23"/>
<path d="M31.7763 166.792L32.2385 346.268C32.2385 348.278 32.965 349.728 34.1205 350.387L40.8781 354.309C39.7223 353.65 38.9961 352.2 38.9961 350.19L38.5339 170.714C38.5339 166.628 41.4063 161.653 44.9721 159.577L296.932 14.4402C298.715 13.4188 300.332 13.3201 301.521 13.9789L294.763 10.0572C293.608 9.39826 291.957 9.49697 290.174 10.5183L38.2145 155.688C34.6487 157.731 31.7763 162.706 31.7763 166.792Z" fill="#388540"/>
<path d="M47.6363 168.515L48.0748 341.907L294.763 199.79L294.325 26.3978L47.6363 168.515Z" fill="#388540"/>
<path d="M47.6363 168.515L47.7099 197.598L294.398 55.4807L294.325 26.3978L47.6363 168.515Z" fill="#AAF3FD"/>
<path d="M253.651 60.8046C256.029 59.4344 257.962 60.4869 257.97 63.2139C257.978 65.9409 256.057 69.2614 253.679 70.6317C251.341 71.9783 249.408 70.8786 249.4 68.1517C249.392 65.4245 251.313 62.1512 253.651 60.8046Z" fill="white" fill-opacity="0.7"/>
<path d="M267.387 52.8903C269.724 51.5437 271.658 52.5962 271.666 55.3232C271.673 58.0502 269.752 61.3707 267.415 62.7173C265.037 64.0875 263.103 62.9878 263.096 60.2608C263.088 57.5338 265.009 54.2605 267.387 52.8903Z" fill="white" fill-opacity="0.7"/>
<path d="M281.083 44.9996C283.461 43.6293 285.394 44.6818 285.402 47.4089C285.41 50.1359 283.489 53.4563 281.11 54.8267C278.732 56.1969 276.799 55.0972 276.791 52.3701C276.783 49.6431 278.704 46.3698 281.083 44.9996Z" fill="white" fill-opacity="0.7"/>
<path d="M93.346 351.391L77.1975 360.756L70.241 356.748L86.3895 347.383L93.346 351.391Z" fill="#388540"/>
<path d="M267.103 250.624L250.933 260.002L243.976 255.994L260.147 246.616L267.103 250.624Z" fill="#388540"/>
<path d="M310.543 225.432L294.372 234.81L287.416 230.802L303.586 221.424L310.543 225.432Z" fill="#388540"/>
<path d="M281.56 284.076L265.411 293.441L251.052 285.168L267.201 275.803L281.56 284.076Z" fill="#388540"/>
<path d="M361.209 279.746L345.038 289.124L330.657 280.838L346.828 271.46L361.209 279.746Z" fill="#388540"/>
<path d="M382.94 267.144L366.769 276.521L334.283 257.805L350.454 248.427L382.94 267.144Z" fill="#388540"/>
<path d="M328.648 235.863L298.832 253.154L284.45 244.868L314.266 227.577L328.648 235.863Z" fill="#388540"/>
<path d="M293.294 256.366L277.123 265.744L262.742 257.458L278.912 248.08L293.294 256.366Z" fill="#388540"/>
<path d="M346.73 246.281L308.829 268.261L294.47 259.989L332.371 238.008L346.73 246.281Z" fill="#388540"/>
<path d="M303.291 271.473L287.12 280.851L272.761 272.578L288.932 263.2L303.291 271.473Z" fill="#388540"/>
<path d="M321.395 281.904L305.225 291.282L290.844 282.996L307.014 273.618L321.395 281.904Z" fill="#388540"/>
<path d="M271.563 268.968L255.392 278.346L241.011 270.06L257.182 260.682L271.563 268.968Z" fill="#388540"/>
<path d="M245.373 263.226L229.224 272.591L222.268 268.583L238.416 259.218L245.373 263.226Z" fill="#388540"/>
<path d="M223.664 275.816L207.493 285.193L200.537 281.186L216.708 271.808L223.664 275.816Z" fill="#388540"/>
<path d="M234.517 332.288L218.346 341.666L203.965 333.38L220.136 324.002L234.517 332.288Z" fill="#388540"/>
<path d="M201.933 288.418L185.785 297.783L178.828 293.775L194.977 284.41L201.933 288.418Z" fill="#388540"/>
<path d="M228.124 294.16L211.975 303.525L197.594 295.239L213.742 285.874L228.124 294.16Z" fill="#388540"/>
<path d="M180.225 301.007L164.054 310.385L157.097 306.377L173.268 296.999L180.225 301.007Z" fill="#388540"/>
<path d="M206.415 306.75L190.244 316.128L175.863 307.842L192.034 298.464L206.415 306.75Z" fill="#388540"/>
<path d="M238.121 309.267L221.972 318.633L207.613 310.36L223.762 300.994L238.121 309.267Z" fill="#388540"/>
<path d="M158.516 313.597L142.345 322.975L135.389 318.967L151.56 309.589L158.516 313.597Z" fill="#388540"/>
<path d="M184.706 319.339L168.536 328.717L154.154 320.431L170.325 311.053L184.706 319.339Z" fill="#388540"/>
<path d="M256.225 319.699L240.077 329.064L225.696 320.778L241.844 311.413L256.225 319.699Z" fill="#388540"/>
<path d="M216.412 321.857L200.241 331.235L185.882 322.962L202.053 313.584L216.412 321.857Z" fill="#388540"/>
<path d="M136.785 326.199L120.615 335.577L113.658 331.569L129.829 322.191L136.785 326.199Z" fill="#388540"/>
<path d="M162.976 331.942L146.805 341.32L132.424 333.034L148.594 323.656L162.976 331.942Z" fill="#388540"/>
<path d="M194.703 334.446L178.533 343.824L164.174 335.551L180.344 326.174L194.703 334.446Z" fill="#388540"/>
<path d="M141.267 344.531L125.096 353.909L110.715 345.623L126.886 336.245L141.267 344.531Z" fill="#388540"/>
<path d="M212.808 344.878L196.638 354.256L182.256 345.97L198.427 336.592L212.808 344.878Z" fill="#388540"/>
<path d="M172.973 347.049L156.802 356.427L142.443 348.154L158.614 338.776L172.973 347.049Z" fill="#388540"/>
<path d="M191.078 357.48L174.907 366.858L160.526 358.572L176.696 349.194L191.078 357.48Z" fill="#388540"/>
<path d="M275.261 329.59L193.012 377.289L178.63 369.003L260.879 321.304L275.261 329.59Z" fill="#388540"/>
<path d="M169.369 370.07L153.198 379.447L138.817 371.162L154.988 361.784L169.369 370.07Z" fill="#388540"/>
<path d="M151.264 359.638L113.385 381.606L99.0258 373.333L136.905 351.365L151.264 359.638Z" fill="#388540"/>
<path d="M147.638 382.672L131.49 392.037L117.108 383.751L133.257 374.386L147.638 382.672Z" fill="#388540"/>
<path d="M187.474 380.501L149.594 402.468L135.213 394.182L173.092 372.215L187.474 380.501Z" fill="#388540"/>
<path d="M115.077 338.789L98.906 348.167L91.9496 344.159L108.12 334.781L115.077 338.789Z" fill="#388540"/>
<path d="M288.812 238.034L272.641 247.412L265.685 243.404L281.855 234.026L288.812 238.034Z" fill="#388540"/>
<path d="M249.854 281.558L233.684 290.936L219.302 282.65L235.473 273.272L249.854 281.558Z" fill="#388540"/>
<path d="M296.061 317.527L279.89 326.905L265.509 318.619L281.68 309.242L296.061 317.527Z" fill="#388540"/>
<path d="M277.956 307.096L261.786 316.474L247.404 308.188L263.575 298.81L277.956 307.096Z" fill="#388540"/>
<path d="M259.851 296.665L243.681 306.043L229.322 297.77L245.492 288.392L259.851 296.665Z" fill="#388540"/>
<path d="M339.5 292.336L323.33 301.713L308.948 293.428L325.119 284.05L339.5 292.336Z" fill="#388540"/>
<path d="M317.769 304.938L301.621 314.303L287.24 306.017L303.388 296.652L317.769 304.938Z" fill="#388540"/>
<path d="M119.536 357.134L95.3024 371.188L80.9211 362.902L105.155 348.848L119.536 357.134Z" fill="#388540"/>
<path d="M70.5681 214.346C73.6991 212.542 75.5477 212.937 76.8707 214.133L75.0935 217.008C73.9569 215.865 72.4978 215.958 70.7153 216.985C67.0882 219.075 64.7879 223.622 64.8004 227.995C64.8127 232.349 67.1315 234.271 70.7585 232.181C72.5409 231.155 73.9957 229.515 75.1222 227.104L76.91 227.943C75.598 230.675 73.7577 233.195 70.6267 234.999C65.5117 237.946 62.0579 235.414 62.0414 229.584C62.0249 223.754 65.4531 217.293 70.5681 214.346Z" fill="#D9F6E8"/>
<path d="M82.0992 223.814C83.1532 223.206 84.0552 223.719 84.0586 224.928C84.062 226.154 83.1659 227.685 82.1119 228.293C81.0424 228.909 80.156 228.405 80.1525 227.178C80.1492 225.97 81.0298 224.43 82.0992 223.814Z" fill="#D9F6E8"/>
<path d="M83.438 210.963C84.202 209.651 84.204 208.229 83.4426 207.788C82.6812 207.346 81.4446 208.052 80.6807 209.363C79.9167 210.675 79.9147 212.097 80.6761 212.538C81.4375 212.98 82.6741 212.274 83.438 210.963Z" fill="#D9F6E8"/>
<path d="M88.0299 196.452L96.5282 220.396L94.4356 221.602L85.9373 197.657L88.0299 196.452Z" fill="#D9F6E8"/>
<path d="M104.592 184.15L119.427 192.605L104.688 218.098L102.309 216.745L114.715 195.32L102.228 188.236L104.592 184.15Z" fill="#D9F6E8"/>
<path d="M135.992 192.638L136.01 199.001L120.495 207.941L120.477 201.578L135.992 192.638Z" fill="#D9F6E8"/>
</svg>
