<svg width="512" height="512" viewBox="0 0 512 512" fill="none" xmlns="http://www.w3.org/2000/svg">
<g clip-path="url(#clip0_3_19)">
<path d="M287.7 297.1H241.9V340.5C241.9 344.4 238.8 347.5 234.9 347.5C231 347.5 227.9 344.4 227.9 340.5V297.1H72.1V394.7C72.1 427.4 86.6 456.6 109.6 476.4C128.5 492.7 153.1 502.5 179.9 502.5C208.8 502.5 235 491.1 254.4 472.6C274.9 453 287.7 425.3 287.7 394.6V297.1ZM239.9 390C238.6 391.3 236.8 392 234.9 392C234.4 392 234 392 233.5 391.9C233.1 391.8 232.6 391.7 232.2 391.5C231.8 391.3 231.4 391.1 231 390.8C230.6 390.5 230.3 390.3 229.9 389.9C228.6 388.6 227.9 386.8 227.9 384.9C227.9 383.1 228.7 381.3 229.9 380C230.2 379.7 230.6 379.4 231 379.1C231.4 378.8 231.8 378.6 232.2 378.5C232.6 378.3 233.1 378.2 233.5 378.1C235.8 377.6 238.2 378.4 239.8 380C241.1 381.3 241.8 383.1 241.8 384.9C241.9 386.9 241.2 388.7 239.9 390Z" fill="#16ADE1"/>
<path d="M328.6 287.9C319.3 287.9 310.3 289.1 301.7 291.3V394.7C301.7 427.8 288.7 458.6 265.1 481.7C282.9 494.8 304.8 502.5 328.6 502.5C355.7 502.5 380.5 492.4 399.4 475.8C399.2 475.7 399 475.5 398.9 475.3L328.4 404.8C325.7 402.1 325.7 397.6 328.4 394.9C331.1 392.2 335.6 392.2 338.3 394.9L408.8 465.4C409 465.6 409.1 465.7 409.3 465.9C425.9 447 436 422.2 436 395.1C435.9 335.9 387.9 287.9 328.6 287.9ZM320.4 387C319.1 388.3 317.3 389.1 315.4 389.1C314.9 389.1 314.5 389 314 389C313.5 388.9 313.1 388.8 312.7 388.6C312.3 388.4 311.9 388.2 311.5 388C311.1 387.7 310.8 387.5 310.4 387.1C309.1 385.8 308.4 384 308.4 382.2C308.4 381.7 308.4 381.3 308.5 380.8C308.6 380.3 308.7 379.9 308.9 379.5C309.1 379.1 309.3 378.7 309.5 378.3C309.8 377.9 310 377.6 310.4 377.2C312 375.6 314.5 374.8 316.7 375.3C317.2 375.4 317.6 375.5 318 375.7C318.4 375.9 318.8 376.1 319.2 376.4C319.6 376.7 319.9 376.9 320.3 377.3C320.6 377.6 320.9 378 321.2 378.4C321.5 378.8 321.7 379.2 321.9 379.6C322.1 380 322.2 380.5 322.3 380.9C322.4 381.3 322.4 381.8 322.4 382.3C322.4 383.8 321.7 385.7 320.4 387Z" fill="#D6E7F8"/>
<path d="M287.7 195.3C287.7 165.5 275.6 138.6 256.1 119.1C236.6 99.6 209.6 87.5 179.9 87.5C159.8 87.5 141 93 124.9 102.6C93.3 121.4 72.1 155.9 72.1 195.4V283.3H287.7V195.3ZM147.4 140.4C128.1 151.9 116.1 172.9 116.1 195.3C116.1 199.2 113 202.3 109.1 202.3C105.2 202.3 102.1 199.2 102.1 195.3C102.1 168 116.7 142.3 140.2 128.3C143.5 126.3 147.8 127.4 149.8 130.8C151.8 134.1 150.7 138.4 147.4 140.4Z" fill="#D6E7F8"/>
</g>
<defs>
<clipPath id="clip0_3_19">
<rect width="512" height="512" fill="white"/>
</clipPath>
</defs>
</svg>
