<svg width="512" height="512" viewBox="0 0 512 512" fill="none" xmlns="http://www.w3.org/2000/svg">
<g clip-path="url(#clip0_3_19)">
<path d="M186.9 412.709L187.176 413.486L186.9 413.556L162.852 437.781L130.811 421.184V420.972L154.859 388.061L186.9 412.709Z" fill="#9270EF"/>
<path d="M90.7073 248.435L74.6522 338.764L50.6039 437.357L46.6762 442.654L18.5625 420.972L74.6522 273.083L90.7073 248.435Z" fill="#9270EF"/>
<path d="M146.797 141.65L153.688 155.704L138.804 231.979L122.749 297.731L130.811 347.027L131.155 347.31L50.6039 437.357L74.6522 338.764L90.7073 248.435L114.756 158.035L146.797 141.65Z" fill="#1DAEEF"/>
<path d="M50.6039 437.357L131.155 347.31L138.804 338.764L202.956 305.924L178.907 355.22L175.049 360.446L154.859 388.061L130.811 420.972V421.184L50.6039 445.691L46.6763 442.654L50.6039 437.357Z" fill="#9270EF"/>
<path d="M291.087 330.572L355.238 240.242L355.445 237.982L376.875 240.031V289.468L307.142 333.75H291.087L290.26 330.784L291.087 330.572Z" fill="#1DAEEF"/>
<path d="M390.518 167.004L376.875 231.979V240.031L355.445 237.983L291.087 231.979L285.574 228.166L315.135 182.683L387.28 166.298L390.518 167.004Z" fill="#1D8DEF"/>
<path d="M355.445 237.983L355.238 240.243L291.087 330.572L290.26 330.784L222.112 355.149L163.266 376.125L175.049 360.446L178.907 355.22L202.956 305.924L204.609 301.969L209.984 289.044L210.949 289.468L283.094 231.979L285.574 228.166L291.087 231.979L326.78 235.299L355.445 237.983Z" fill="#1DAEEF"/>
<path d="M290.26 330.784L291.087 333.75L259.045 389.685L187.176 413.486L186.9 412.709L154.859 388.061L175.049 360.446L178.907 363.413L290.26 330.784Z" fill="#1DAEEF"/>
<path d="M226.935 158.035L178.907 240.243L194.894 297.731L204.609 301.969L202.956 305.924L138.804 338.764L131.155 347.31L130.811 347.028L122.749 297.731L138.804 231.979L153.688 155.704L154.859 158.035L177.047 112.553L178.907 108.739L202.956 125.194L234.997 84.0906L226.935 158.035Z" fill="#1DAEEF"/>
<path d="M387.28 166.298L315.135 182.683L285.574 228.166L283.094 231.979L210.949 289.468L209.984 289.044L250.983 190.946L283.094 166.298L285.299 162.908L287.297 164.25L390.656 114.812L391.552 115.307L390.656 117.002V166.298L390.518 167.004L387.28 166.298Z" fill="#1D7EEF"/>
<path d="M412.982 75.8982L391.552 115.307L390.656 114.813L287.297 164.25L285.299 162.908L349.313 65.375L350.553 60.29L412.982 75.8982Z" fill="#1D5DEF"/>
<path d="M177.047 143.063L135.703 340.813L122.749 297.731L138.804 231.979L153.688 155.704L154.859 158.035L177.047 112.553L190.828 114.813L177.047 143.063Z" fill="#1E83EF"/>
<path d="M87.4688 397.312L53.0156 439.688L94.3594 432.625L87.4688 418.5V397.312Z" fill="#925AEF"/>
<path d="M149.484 150.125H135.703L101.25 333.75L94.3594 390.25L135.703 347.875L121.922 277.25L149.484 150.125Z" fill="#1E83EF"/>
<path d="M350.553 60.29L349.313 65.375L285.299 162.908L283.094 166.298L260.906 183.319L260.148 183.954L250.983 190.946L209.984 289.044L204.609 301.969L194.894 297.731L178.907 240.243L226.935 158.035L234.997 84.0906L288.813 72.2963L327.607 63.7506L347.176 59.4425L350.553 60.29Z" fill="#1D41EF"/>
<path d="M314.859 65.375L266.625 185.438H259.734L245.953 192.5L273.516 72.4375L314.859 65.375Z" fill="#1D5DEF"/>
<path d="M232.172 157.188L225.281 241.938L211.5 284.312L204.609 192.5L232.172 157.188Z" fill="#1D5DEF"/>
<path d="M46.6762 442.654L18.5625 420.972L74.6522 273.083L90.7073 248.435L114.756 158.035L146.797 141.65L153.688 155.704L154.859 158.035L178.907 108.739L202.956 125.194L232.172 79.5L347.176 59.4425L350.553 60.29L412.982 75.8981L391.552 115.307L390.656 117.002V166.298L390.518 167.004L376.875 231.979V240.031V289.468L307.142 333.75H291.087L259.045 389.685L187.176 413.486L186.9 413.556L162.852 437.781L130.811 421.184L59.9062 446.75L46.6762 442.654Z" stroke="#001C63" stroke-width="2" stroke-linecap="round" stroke-linejoin="round"/>
<path d="M349.312 241.938H363.094H376.875L294.739 319.625L349.312 241.938Z" fill="#1D7EEF"/>
<path d="M355.445 237.983L355.238 240.243L291.087 330.572L290.26 330.784L222.112 355.149L178.907 355.22L225.281 333.75L287.297 312.563L326.78 235.299L355.445 237.983Z" fill="#1D7EEF"/>
<path d="M387.28 166.298L315.135 182.683L285.574 228.166L283.094 231.979L210.949 289.468" stroke="#001C63" stroke-width="2.33" stroke-linecap="round" stroke-linejoin="round"/>
<path d="M376.875 241.937V240.031L355.445 237.982L291.087 231.979" stroke="#001C63" stroke-width="2.33" stroke-linecap="round" stroke-linejoin="round"/>
<path d="M154.859 149.842L153.688 155.704L138.804 231.979L122.749 297.731L130.811 347.028" stroke="#001C63" stroke-width="2.33" stroke-linecap="round" stroke-linejoin="round"/>
<path d="M156.375 326.688L135.703 347.875H163.266L121.922 418.5L183.938 354.938L197.719 312.562L156.375 326.688Z" fill="#1D41EF"/>
<path d="M130.811 420.972L154.859 388.061L175.049 360.446L178.907 355.22L202.956 305.924" stroke="#001C63" stroke-width="2.33" stroke-linecap="round" stroke-linejoin="round"/>
<path d="M186.9 412.709L154.859 388.061" stroke="#001C63" stroke-width="2.33" stroke-linecap="round" stroke-linejoin="round"/>
<path d="M90.7073 248.435L74.6522 338.764L50.6039 437.357L131.155 347.31L138.804 338.764L202.956 305.924L204.609 301.969L209.984 289.044L250.983 190.946L283.094 166.298L285.299 162.908L349.312 65.375" stroke="#001C63" stroke-width="2.33" stroke-linecap="round" stroke-linejoin="round"/>
<path d="M178.907 363.412L290.26 330.784L291.087 330.572L355.238 240.242" stroke="#001C63" stroke-width="2.33" stroke-linecap="round" stroke-linejoin="round"/>
<path d="M234.997 84.0906L226.935 158.035L178.907 240.243L194.894 297.731" stroke="#001C63" stroke-width="2.33" stroke-linecap="round" stroke-linejoin="round"/>
<path d="M287.297 164.25L390.656 114.812" stroke="#001C63" stroke-width="2.33" stroke-linecap="round" stroke-linejoin="round"/>
<path d="M177.047 178.375L170.156 208.956" stroke="white" stroke-width="2" stroke-linecap="round" stroke-linejoin="round"/>
<path d="M307.969 256.062L301.078 270.188" stroke="white" stroke-width="2" stroke-linecap="round" stroke-linejoin="round"/>
<path d="M225.281 312.562C229.087 312.562 232.172 309.401 232.172 305.5C232.172 301.599 229.087 298.438 225.281 298.438C221.476 298.438 218.391 301.599 218.391 305.5C218.391 309.401 221.476 312.562 225.281 312.562Z" fill="white"/>
<path d="M163.266 234.875C167.071 234.875 170.156 231.713 170.156 227.812C170.156 223.912 167.071 220.75 163.266 220.75C159.46 220.75 156.375 223.912 156.375 227.812C156.375 231.713 159.46 234.875 163.266 234.875Z" fill="white"/>
</g>
<defs>
<clipPath id="clip0_3_19">
<rect width="512" height="512" fill="white"/>
</clipPath>
</defs>
</svg>
